REM GENRE "Noise"
REM DATE "2021"
REM COMMENT "Solo un po' di rumore generato con soX"
PERFORMER "SoX il genio"
TITLE "SoX - Tre Campioni in più"

FILE "Three Samples.flac" WAVE

  TRACK 01 AUDIO
    TITLE "La frequenza è 300 Hz"
    INDEX 01 00:00:00
  TRACK 02 AUDIO
    TITLE "La frequenza è 400 Hz"
    INDEX 01 00:01:00
  TRACK 04 AUDIO
    TITLE "Questa frequenza è di 500 Hz"
    INDEX 01 00:02:00
